<?xml version="1.0" encoding="UTF-8" standalone="no"?>
<svg
   xmlns:dc="http://purl.org/dc/elements/1.1/"
   xmlns:cc="http://creativecommons.org/ns#"
   xmlns:rdf="http://www.w3.org/1999/02/22-rdf-syntax-ns#"
   xmlns:svg="http://www.w3.org/2000/svg"
   xmlns="http://www.w3.org/2000/svg"
   xmlns:sodipodi="http://sodipodi.sourceforge.net/DTD/sodipodi-0.dtd"
   xmlns:inkscape="http://www.inkscape.org/namespaces/inkscape"
   width="48"
   viewBox="0 0 48 48"
   height="48"
   id="svg2"
   version="1.1"
   inkscape:version="0.91 r13725"
   sodipodi:docname="application-x-tzo.svg">
  <metadata
     id="metadata30">
    <rdf:RDF>
      <cc:Work
         rdf:about="">
        <dc:format>image/svg+xml</dc:format>
        <dc:type
           rdf:resource="http://purl.org/dc/dcmitype/StillImage" />
        <dc:title />
      </cc:Work>
    </rdf:RDF>
  </metadata>
  <defs
     id="defs28" />
  <sodipodi:namedview
     pagecolor="#ffffff"
     bordercolor="#666666"
     borderopacity="1"
     objecttolerance="10"
     gridtolerance="10"
     guidetolerance="10"
     inkscape:pageopacity="0"
     inkscape:pageshadow="2"
     inkscape:window-width="1366"
     inkscape:window-height="704"
     id="namedview26"
     showgrid="false"
     inkscape:zoom="1"
     inkscape:cx="23.055571"
     inkscape:cy="5.6886906"
     inkscape:window-x="0"
     inkscape:window-y="27"
     inkscape:window-maximized="1"
     inkscape:current-layer="svg2">
    <inkscape:grid
       type="xygrid"
       id="grid4158" />
  </sodipodi:namedview>
  <path
     style="fill:#c19553"
     d="M 8,1 C 6.9714285,1 6,1.9714285 6,3 l 0,42 c 0,0.971429 1.0285714,2 2,2 l 32,0 c 0.971429,0 2,-1.028571 2,-2 L 42,14 29,1 z"
     id="path4" />
  <path
     style="fill-opacity:.196"
     d="M 29,12 29.0625,12.0625 29.21875,12 29,12 z m 2,2 11,11 0,-11 -11,0 z"
     id="path6" />
  <path
     style="fill:#fff;fill-opacity:.392"
     d="m 29,1 13,13 -11,0 c -0.971429,0 -2,-1.028571 -2,-2 L 29,1 z"
     id="path8" />
  <path
     style="fill-opacity:.196"
     d="m 6,35 0,10 c 0,0.971429 1.0285714,2 2,2 l 32,0 c 0.971429,0 2,-1.028571 2,-2 l 0,-10 z"
     id="path10" />
  <g
     style="fill:#fff"
     id="g12">
    <g
       id="g14">
      <path
         d="m 18,1 0,4 4,0 0,-4 -4,0 z m 0,4 -4,0 0,4 4,0 0,-4 z m 0,4 0,4 4,0 0,-4 -4,0 z m 0,4 -4,0 0,4 4,0 0,-4 z m 0,4 0,4 4,0 0,-4 -4,0 z m -4,6 0,8 8,0 0,-8 -4,0 -4,0 z"
         id="path16" />
    </g>
    <g
       style="word-spacing:0;line-height:125%;letter-spacing:0"
       transform="scale(1.06309 .94065)"
       id="g18">
      <path
         d="m 18.954185,39.334503 0,1.40143 -2.100679,0 0,7.103327 -1.632485,0 0,-7.103327 -2.145929,0 0,-1.40143 5.879093,0"
         id="path20"
         inkscape:connector-curvature="0"
         sodipodi:nodetypes="ccccccccc" />
      <path
         d="m 25.118439,40.516101 c -1.2342,1.952681 -2.363164,3.927705 -3.406988,5.921729 l 3.526299,0 0,1.40143 -5.408761,0 0,-0.975505 c 1.041322,-2.132084 2.211772,-4.176732 3.327449,-6.127822 l -3.155111,0 0,-1.40143 5.117112,0 0,1.181598"
         id="path24"
         inkscape:connector-curvature="0"
         sodipodi:nodetypes="ccccccccccc" />
    </g>
  </g>
  <path
     inkscape:connector-curvature="0"
     style="line-height:125%;letter-spacing:0;word-spacing:0;fill:#ffffff"
     d="m 29.196978,41.000011 c -2e-6,0.37152 0.01478,0.722396 0.04439,1.052629 0.03947,0.321983 0.108521,0.602683 0.207176,0.842102 0.10852,0.239424 0.256497,0.42931 0.443945,0.569659 0.18744,0.140351 0.491808,0.210526 0.807505,0.210525 0.305827,10e-7 0.605264,-0.07017 0.792713,-0.210525 0.197304,-0.140349 0.345286,-0.330235 0.443945,-0.569659 0.108521,-0.247675 0.177575,-0.532503 0.207175,-0.854486 0.03946,-0.321977 0.05921,-0.668725 0.05921,-1.040245 -6e-6,-0.371511 -0.01974,-0.718259 -0.05921,-1.040244 -0.02961,-0.330231 -0.09866,-0.61506 -0.207175,-0.854487 -0.09864,-0.239415 -0.241709,-0.4293 -0.429149,-0.569657 -0.187447,-0.140344 -0.491817,-0.210519 -0.807509,-0.210526 -0.315697,7e-6 -0.620065,0.07018 -0.807505,0.210526 -0.187448,0.140357 -0.335429,0.334371 -0.443945,0.582042 -0.09866,0.239426 -0.167718,0.520127 -0.207176,0.842102 -0.0296,0.321985 -0.04439,0.668733 -0.04439,1.040244 m -1.796978,0 c 0,-1.320939 0.291032,-2.315776 0.873095,-2.984511 0.582062,-0.676976 1.391028,-1.015468 2.426905,-1.015476 1.075332,8e-6 1.894164,0.3385 2.456504,1.015476 0.562325,0.668735 0.84349,1.663572 0.843496,2.984511 -6e-6,1.320948 -0.286105,2.319912 -0.858295,2.996895 C 32.569503,44.665635 31.760534,45 30.714798,45 29.63946,45 28.815694,44.665635 28.243497,43.996906 27.681166,43.319923 27.4,42.320959 27.4,41.000011"
     id="path26"
     sodipodi:nodetypes="ccccsccccccccccccccccscscc" />
</svg>
