<?xml version="1.0" encoding="UTF-8" standalone="no"?>
<svg
   xmlns:dc="http://purl.org/dc/elements/1.1/"
   xmlns:cc="http://creativecommons.org/ns#"
   xmlns:rdf="http://www.w3.org/1999/02/22-rdf-syntax-ns#"
   xmlns:svg="http://www.w3.org/2000/svg"
   xmlns="http://www.w3.org/2000/svg"
   xmlns:sodipodi="http://sodipodi.sourceforge.net/DTD/sodipodi-0.dtd"
   xmlns:inkscape="http://www.inkscape.org/namespaces/inkscape"
   width="48"
   viewBox="0 0 48 48"
   height="48"
   id="svg2"
   version="1.1"
   inkscape:version="0.91 r13725"
   sodipodi:docname="application-raw_48.svg">
  <metadata
     id="metadata16">
    <rdf:RDF>
      <cc:Work
         rdf:about="">
        <dc:format>image/svg+xml</dc:format>
        <dc:type
           rdf:resource="http://purl.org/dc/dcmitype/StillImage" />
        <dc:title />
      </cc:Work>
    </rdf:RDF>
  </metadata>
  <defs
     id="defs14">
    <clipPath
       id="clipPath-258929573">
      <g
         transform="translate(0,-1004.3622)"
         id="g17">
        <path
           inkscape:connector-curvature="0"
           d="m -24,13 c 0,1.105 -0.672,2 -1.5,2 -0.828,0 -1.5,-0.895 -1.5,-2 0,-1.105 0.672,-2 1.5,-2 0.828,0 1.5,0.895 1.5,2 z"
           transform="matrix(15.333333,0,0,11.5,414.99999,878.8622)"
           style="fill:#1890d0"
           id="path19" />
      </g>
    </clipPath>
  </defs>
  <sodipodi:namedview
     pagecolor="#ffffff"
     bordercolor="#666666"
     borderopacity="1"
     objecttolerance="10"
     gridtolerance="10"
     guidetolerance="10"
     inkscape:pageopacity="0"
     inkscape:pageshadow="2"
     inkscape:window-width="1920"
     inkscape:window-height="1013"
     id="namedview12"
     showgrid="false"
     inkscape:zoom="1"
     inkscape:cx="16.316198"
     inkscape:cy="4.3348946"
     inkscape:window-x="0"
     inkscape:window-y="27"
     inkscape:window-maximized="1"
     inkscape:current-layer="svg2">
    <inkscape:grid
       type="xygrid"
       id="grid4177" />
  </sodipodi:namedview>
  <path
     style="fill:#39a34f"
     d="M 8,1 C 6.9714285,1 6,1.9714285 6,3 l 0,42 c 0,0.971429 1.0285714,2 2,2 l 32,0 c 0.971429,0 2,-1.028571 2,-2 L 42,14 29,1 z"
     id="path4" />
  <path
     style="fill-opacity:.196"
     d="M 29,12 29.0625,12.0625 29.21875,12 29,12 z m 2,2 11,11 0,-11 -11,0 z"
     id="path6" />
  <path
     style="fill:#fff;fill-opacity:.392"
     d="m 29,1 13,13 -11,0 c -0.971429,0 -2,-1.028571 -2,-2 L 29,1 z"
     id="path8" />
  <g
     transform="matrix(0.53367457,0,0,0.5335119,11.192071,11.191446)"
     style="fill:#ffffff;fill-opacity:1"
     id="g59">
    <g
       id="g61"
       clip-path="url(#clipPath-258929573)"
       style="fill:#ffffff">
      <!-- color: #3d3d3d -->
      <g
         id="g63"
         style="fill:#ffffff">
        <path
           inkscape:connector-curvature="0"
           d="M 27.08,9.641 23.471,19.793 37.705,17.43 C 35.603,13.438 31.721,10.5 27.08,9.641 m 0,0"
           style="fill:#ffffff;fill-rule:nonzero;stroke:none"
           id="path65" />
        <path
           inkscape:connector-curvature="0"
           d="m 38.15,19.449 -10.738,1.988 9.199,10.98 c 2.457,-3.797 3.09,-8.586 1.527,-12.969 m 0.012,0"
           style="fill:#ffffff;fill-rule:nonzero;stroke:none"
           id="path67" />
        <path
           inkscape:connector-curvature="0"
           d="m 35.07,33.809 -7.121,-8.164 -5.05,13.344 c 4.566,0.195 9.09,-1.656 12.156,-5.18 m 0.012,0"
           style="fill:#ffffff;fill-rule:nonzero;stroke:none"
           id="path69" />
        <path
           inkscape:connector-curvature="0"
           d="m 20.922,38.36 3.617,-10.152 -14.242,2.363 c 2.109,3.996 5.996,6.934 10.625,7.789 m 0,0"
           style="fill:#ffffff;fill-rule:nonzero;stroke:none"
           id="path71" />
        <path
           inkscape:connector-curvature="0"
           d="M 9.852,28.559 20.586,26.571 11.387,15.591 C 8.934,19.392 8.297,24.177 9.86,28.56 m -0.008,0"
           style="fill:#ffffff;fill-rule:nonzero;stroke:none"
           id="path73" />
        <path
           inkscape:connector-curvature="0"
           d="m 12.926,14.207 7.121,8.164 5.05,-13.344 c -4.563,-0.195 -9.09,1.656 -12.152,5.18 m -0.016,0"
           style="fill:#ffffff;fill-rule:nonzero;stroke:none"
           id="path75" />
      </g>
    </g>
  </g>
  <path
     inkscape:connector-curvature="0"
     style="fill-opacity:0.19599998"
     d="m 6,35 0,10 c 0,0.971429 1.028571,2 2,2 l 32,0 c 0.971429,0 2,-1.028571 2,-2 l 0,-10 z"
     id="path10" />
  <path
     inkscape:connector-curvature="0"
     id="path4168"
     style="font-style:normal;font-variant:normal;font-weight:bold;font-stretch:normal;font-size:12.38390064px;line-height:125%;font-family:'Ubuntu Mono';-inkscape-font-specification:'Ubuntu Mono, Bold';text-align:start;letter-spacing:0px;word-spacing:0px;writing-mode:lr-tb;text-anchor:start;fill:#ffffff;fill-opacity:1;stroke:none;stroke-width:1px;stroke-linecap:butt;stroke-linejoin:miter;stroke-opacity:1"
     d="m 16.467781,43.637224 q 0.05967,0.01261 0.131265,0.01261 0.0716,0 0.131265,0 0.501192,0 0.835322,-0.201892 0.346062,-0.201893 0.548926,-0.555205 0.214797,-0.353312 0.298329,-0.832807 0.09546,-0.492113 0.09546,-1.072555 0,-0.504732 -0.0716,-0.984227 -0.0716,-0.479495 -0.250597,-0.845425 -0.178997,-0.365932 -0.48926,-0.580442 -0.310262,-0.227129 -0.799522,-0.227129 -0.09547,0 -0.214797,0.01261 -0.119332,0 -0.214797,0.02524 l 0,5.249209 z M 20,40.987383 q 0,1.085173 -0.262529,1.854889 -0.250597,0.757098 -0.704058,1.236592 -0.453461,0.479495 -1.085919,0.706624 Q 17.32697,45 16.575179,45 16.181384,45 15.799522,44.94952 15.429594,44.91167 15,44.810719 l 0,-7.621448 q 0.501194,-0.113565 0.942721,-0.15142 0.441527,-0.03785 0.823389,-0.03785 0.727923,0 1.324582,0.227129 0.608592,0.227129 1.026254,0.719242 0.41766,0.479495 0.644391,1.236593 Q 20,39.927444 20,40.987381 Z" />
  <path
     inkscape:connector-curvature="0"
     id="path4170"
     style="font-style:normal;font-variant:normal;font-weight:bold;font-stretch:normal;font-size:12.38390064px;line-height:125%;font-family:'Ubuntu Mono';-inkscape-font-specification:'Ubuntu Mono, Bold';text-align:start;letter-spacing:0px;word-spacing:0px;writing-mode:lr-tb;text-anchor:start;fill:#ffffff;fill-opacity:1;stroke:none;stroke-width:1px;stroke-linecap:butt;stroke-linejoin:miter;stroke-opacity:1"
     d="m 24.786764,45 q -0.514705,-1.331179 -1.12745,-2.649434 -0.600491,-1.33118 -1.29902,-2.662359 L 22.360294,45 21,45 l 0,-8 1.213235,0 q 0.343137,0.568659 0.686275,1.24071 0.343137,0.659128 0.661764,1.318256 0.330883,0.659128 0.60049,1.279483 0.281863,0.620356 0.477942,1.085622 L 24.639706,37 26,37 l 0,8 -1.213236,0 z" />
  <path
     inkscape:connector-curvature="0"
     id="path4172"
     style="font-style:normal;font-variant:normal;font-weight:bold;font-stretch:normal;font-size:12.38390064px;line-height:125%;font-family:'Ubuntu Mono';-inkscape-font-specification:'Ubuntu Mono, Bold';text-align:start;letter-spacing:0px;word-spacing:0px;writing-mode:lr-tb;text-anchor:start;fill:#ffffff;fill-opacity:1;stroke:none;stroke-width:1px;stroke-linecap:butt;stroke-linejoin:miter;stroke-opacity:1"
     d="m 30.260867,38.325077 q -0.503433,0 -0.846683,0.198142 -0.343249,0.198142 -0.572082,0.557276 -0.217391,0.346749 -0.320366,0.842105 -0.09153,0.482972 -0.09153,1.077399 0,1.374613 0.400457,2.03096 0.400458,0.643963 1.17849,0.643963 0.125858,0 0.2746,-0.01238 0.148741,-0.01238 0.274599,-0.03715 l 0,-2.798761 1.407323,0 0,3.826625 q -0.251717,0.09907 -0.789474,0.22291 -0.526315,0.123839 -1.281464,0.123839 -0.663616,0 -1.201373,-0.247678 Q 28.167048,44.492265 27.789473,43.996909 27.4119,43.489169 27.205949,42.746135 27,41.990717 27,41.000005 q 0,-0.978328 0.240275,-1.721362 0.240274,-0.755418 0.652174,-1.263158 0.411899,-0.50774 0.97254,-0.755418 0.56064,-0.260062 1.201373,-0.260062 0.411899,0 0.732265,0.0743 0.331807,0.06192 0.572082,0.148606 0.240275,0.08669 0.389016,0.185759 Q 31.919909,37.50774 32,37.557277 l -0.366133,1.213622 Q 31.382148,38.597522 31.016015,38.4613 30.649883,38.325077 30.260867,38.325077 Z" />
</svg>
